<?xml version="1.0" encoding="UTF-8"?>
<svg width="20px" height="20px" viewBox="0 0 20 20" version="1.1" xmlns="http://www.w3.org/2000/svg" xmlns:xlink="http://www.w3.org/1999/xlink">
    <!-- Generator: Sketch 49.3 (51167) - http://www.bohemiancoding.com/sketch -->
    <title>phone</title>
    <desc>Created with Sketch.</desc>
    <defs></defs>
    <g id="Page-1" stroke="none" stroke-width="1" fill="none" fill-rule="evenodd">
        <g id="HotStone--Home" transform="translate(-535.000000, -5052.000000)" fill="#B56A94" fill-rule="nonzero">
            <g id="phone" transform="translate(535.000000, 5052.000000)">
                <path d="M19.7853882,15.1702294 C19.0408956,13.7626785 16.4555636,12.236472 16.3417393,12.1697283 C15.8682747,11.899787 15.3781257,11.815245 14.9617586,11.9301925 C14.6488344,12.0169593 14.3937493,12.2149657 14.2220859,12.5034469 C13.8439074,12.955821 13.3748919,13.4845796 13.2610676,13.5665261 C12.3834711,14.160916 11.6853239,14.0912059 10.9274839,13.3332938 L6.66889744,9.07393198 C5.91068663,8.31564914 5.84098315,7.61743564 6.43457507,6.74123889 C6.51762604,6.62666217 7.0463344,6.15723132 7.49866554,5.7786461 C7.78711933,5.60696641 7.9851069,5.35185708 8.07186549,5.03890318 C8.18717285,4.62249651 8.10226808,4.13267175 7.83012787,3.65545414 C7.76598583,3.5456978 6.23918285,0.959749363 4.83250717,0.215556861 C4.11878795,-0.162286766 3.25490963,-0.0328781048 2.6835635,0.538893115 L1.74256642,1.4796088 C0.254322824,2.967623 -0.284396147,4.65438518 0.140498513,6.49280393 C0.494948159,8.02494315 1.52789451,9.65534396 3.21115957,11.3383982 L8.66323284,16.7909895 C10.7995706,18.9275302 12.8372853,20.0009917 14.7059319,20.0009917 C16.0781266,20.0009917 17.3594844,19.4218045 18.5214563,18.2600929 L19.4620826,17.3193773 C20.0334288,16.7479768 20.1631959,15.8843872 19.7853882,15.1702294 Z M18.9378234,16.7950682 L17.9971971,17.7357839 C15.5616535,20.1708174 12.598143,19.6772846 9.18786281,16.2666804 L3.73541877,10.8140891 C2.15188903,9.23040893 1.18568005,7.72014682 0.863116044,6.32557382 C0.494206632,4.73114046 0.953582272,3.31765675 2.26682563,2.00428861 L3.20745194,1.06357293 C3.41767469,0.853701004 3.69426406,0.743944661 3.97493182,0.743944661 C4.14807825,0.743944661 4.32307849,0.785474088 4.48510202,0.87149933 C5.70602533,1.51780104 7.17536,4.00622948 7.18796595,4.02736499 C7.35443864,4.31918338 7.41783916,4.62360891 7.35740475,4.8416384 C7.32032843,4.97475505 7.23764823,5.07635382 7.10417347,5.15125511 L7.04818822,5.18981815 C6.73192718,5.45345585 5.97964859,6.09197079 5.82170346,6.32483223 C5.59479636,6.66003403 5.44426649,6.98930306 5.36566469,7.31301011 C5.10205203,6.7872179 4.88886318,6.17799604 4.81878893,5.50314285 C4.79765542,5.29957449 4.61672297,5.15681709 4.4116909,5.17239062 C4.20814189,5.19389693 4.0598366,5.37595898 4.0809701,5.57989813 C4.34866115,8.15805979 6.35337793,9.83629361 6.43865347,9.90637451 C6.44792255,9.91416128 6.45941621,9.91712767 6.46905606,9.92380204 L10.4032247,13.8583445 C10.419909,13.8750304 10.4365934,13.8891207 10.4532777,13.9054359 C10.4666252,13.9247174 10.4751527,13.9462237 10.4922078,13.9632804 C10.5622821,14.0326197 12.2362781,15.656717 14.7926905,15.9222087 C14.8056672,15.9233211 14.818644,15.9240627 14.8312499,15.9240627 C15.0188561,15.9240627 15.1797673,15.7820469 15.1997886,15.5918272 C15.2209221,15.3878881 15.0729875,15.2058261 14.8690678,15.1843197 C14.0852743,15.1031149 13.3908348,14.8732198 12.8117026,14.6066157 C13.0953365,14.5213321 13.3837903,14.3796871 13.6763224,14.1813099 C13.9091618,14.0237206 14.5479868,13.2709997 14.8115995,12.9547086 L14.8501588,12.8987181 C14.925053,12.7656014 15.0262714,12.6825426 15.1597461,12.6454627 C15.3781257,12.5846518 15.6825223,12.6480583 15.9706053,12.812322 C15.9958172,12.827154 18.4836385,14.2962574 19.1298788,15.5176676 C19.3545613,15.941861 19.2774425,16.4554168 18.9378234,16.7950682 Z" id="Shape"></path>
            </g>
        </g>
    </g>
</svg>