<?xml version="1.0" encoding="UTF-8"?>
<svg width="70px" height="94px" viewBox="0 0 70 94" version="1.1" xmlns="http://www.w3.org/2000/svg" xmlns:xlink="http://www.w3.org/1999/xlink">
    <!-- Generator: Sketch 49.3 (51167) - http://www.bohemiancoding.com/sketch -->
    <title>Group 2</title>
    <desc>Created with Sketch.</desc>
    <defs>
        <path d="M25.6820504,0.0834717819 C11.9828016,0.0834717819 1.27341589,4.86839569 0.22031831,12.2108719 C-1.05668972,21.0987857 12.2869366,30.3702124 30.0213632,32.9187762 C47.7551911,35.4691376 63.1678938,30.3306627 64.4425071,21.4427489 C65.715923,12.5572321 52.3716979,3.28400761 34.6396661,0.735443881 C31.5659862,0.294403932 28.5653466,0.0834717819 25.6928269,0.0834717819 C25.6898334,0.0834717819 25.6856426,0.0834717819 25.6820504,0.0834717819" id="path-1"></path>
        <path d="M24.4051647,0.448042169 C9.87418054,2.31966365 -0.973178783,11.0307982 0.171893416,19.9068122 C1.31935991,28.7846185 14.0282846,34.464001 28.5598673,32.5959639 C43.0890558,30.7249398 53.939408,22.0108183 52.7907443,13.135999 C51.7923228,5.40040161 42.0116224,0.091997992 29.898279,0.091997992 C28.1115354,0.091997992 26.2727158,0.207891566 24.4051647,0.448042169" id="path-3"></path>
    </defs>
    <g id="Page-1" stroke="none" stroke-width="1" fill="none" fill-rule="evenodd">
        <g id="Hotstone-logo">
            <g id="Group-2">
                <g id="Group-3" transform="translate(3.654618, 56.927711)">
                    <mask id="mask-2" fill="white">
                        <use xlink:href="#path-1"></use>
                    </mask>
                    <g id="Clip-2"></g>
                    <path d="M25.6820504,0.0834717819 C11.9828016,0.0834717819 1.27341589,4.86839569 0.22031831,12.2108719 C-1.05668972,21.0987857 12.2869366,30.3702124 30.0213632,32.9187762 C47.7551911,35.4691376 63.1678938,30.3306627 64.4425071,21.4427489 C65.715923,12.5572321 52.3716979,3.28400761 34.6396661,0.735443881 C31.5659862,0.294403932 28.5653466,0.0834717819 25.6928269,0.0834717819 C25.6898334,0.0834717819 25.6856426,0.0834717819 25.6820504,0.0834717819" id="Fill-1" mask="url(#mask-2)"></path>
                </g>
                <g id="Group-6" transform="translate(6.746988, 24.176707)">
                    <mask id="mask-4" fill="white">
                        <use xlink:href="#path-3"></use>
                    </mask>
                    <g id="Clip-5"></g>
                    <path d="M24.4051647,0.448042169 C9.87418054,2.31966365 -0.973178783,11.0307982 0.171893416,19.9068122 C1.31935991,28.7846185 14.0282846,34.464001 28.5598673,32.5959639 C43.0890558,30.7249398 53.939408,22.0108183 52.7907443,13.135999 C51.7923228,5.40040161 42.0116224,0.091997992 29.898279,0.091997992 C28.1115354,0.091997992 26.2727158,0.207891566 24.4051647,0.448042169" id="Fill-4" mask="url(#mask-4)"></path>
                </g>
                <path d="M56.0779059,16.1707792 C56.5220101,14.5030894 51.4333665,5.83709033 41.688213,3.24423683 C36.92756,1.59690659 31.3182013,0.474135153 25.0917653,0.756175337 C19.8714466,1.62564953 9.72707812,1.08552162 7.61608706,12.9174367 C25.2407975,42.4568046 57.3838834,25.548765 55.2250105,21.7816423 C53.4976728,26.0733238 49.9538173,28.4009038 47.0420023,29.8140988 C38.1156284,32.2225184 29.9619479,31.1524424 22.0985511,28.451204 C18.1794217,27.0553746 14.3177505,25.2014544 10.8050183,21.7097849 C6.83321881,19.388193 4.55404275,9.18923672 10.2783179,5.07839624 C19.2286327,-1.472002 27.5235647,-0.0210818999 35.4150921,1.09689904 C42.8457567,3.41310166 51.9540816,4.69635455 56.0779059,16.1707792" id="Fill-22" fill="#FFFFFF"></path>
                <path d="M22.9037443,2.8045296 C22.5769506,3.10573175 18.0533129,2.61171232 12.3206584,6.85968061 C9.03775904,8.92677767 8.57450214,15.4945414 11.8029359,18.4963831 C14.5268146,21.7491268 18.2298772,23.6479579 21.9257575,25.1318126 C37.042656,31.8684412 53.7121236,24.4072508 52.8604252,22.135959 C51.6945021,24.0916771 50.0778912,25.5659509 48.3439697,26.7144712 C37.9410393,30.3498554 27.8098383,28.5576128 18.6757769,24.2581467 C14.6399355,21.945537 8.64692344,18.6981826 9.3370206,11.0878881 C11.9836899,4.22910199 18.2915251,3.46621623 22.9037443,2.8045296" id="Fill-24" fill="#FFFFFF"></path>
                <path d="M51.4563498,18.6929131 C52.2062993,18.4030883 50.9835165,11.5113676 41.9673642,8.30173829 C34.5546553,5.53762473 19.6669911,2.06032675 12.5601275,11.103577 C12.820485,22.6588412 29.5952927,24.9804331 36.7326809,25.0995965 C45.5710719,25.269659 50.3897816,21.4085229 49.9845814,21.2007353 C48.6289265,23.3522648 46.1139324,24.8810304 43.592953,25.930148 C36.1293696,27.4140027 28.5586506,26.0696711 21.6858096,23.4037626 C18.3268978,21.8702065 14.9895328,19.9504171 12.7642239,16.8461786 C9.96971939,13.7652938 11.5180987,8.73348134 15.0906832,7.23705157 C21.748056,3.7861013 29.5378344,4.40347588 36.4830968,6.11308252 C42.8783164,7.80592243 51.708328,11.6610704 51.4563498,18.6929131" id="Fill-26" fill="#FFFFFF"></path>
                <path d="M23.7506545,7.67484261 C23.570499,7.7005915 19.3323568,7.89999571 15.7454077,10.3509309 C11.8735616,12.3617397 16.6246382,18.0414661 23.3825628,20.4432987 C37.2688978,26.3667414 50.6482837,19.8738291 48.7497684,19.3732227 C48.3379845,20.3648544 47.33067,21.4403198 46.0833478,22.3199738 C38.0577513,25.0655242 28.2042651,23.6134065 20.6048169,19.7414917 C16.8012025,17.943261 13.3620886,14.3120685 14.2155826,12.0096386 C15.0223918,9.56349386 19.6657342,7.89999571 23.7506545,7.67484261" id="Fill-28" fill="#FFFFFF"></path>
                <path d="M46.302527,17.6227771 C46.7202962,18.2431458 45.2928185,14.577821 37.4276261,12.1274846 C33.788007,11.0083061 29.1362853,10.2376358 24.5677583,10.6083 C19.7233121,10.4903342 15.9663824,14.0939814 17.3585472,12.6837805 C19.0014932,16.9586953 33.1571636,21.1851063 39.4075406,19.8234092 C47.6192779,18.5904564 46.4563475,16.7155778 46.5299658,17.5581055 C47.3397676,17.2820534 46.5844314,19.0665115 44.9085667,20.1892829 C39.5613611,22.1384141 32.3042682,21.4402 26.2891108,19.5491535 C20.0123988,18.2114088 14.8267944,11.8424504 16.678625,12.4520404 C21.9803428,6.92081925 43.7426436,11.3280714 46.302527,17.6227771" id="Fill-30" fill="#FFFFFF"></path>
                <path d="M58.0257396,28.0648509 C57.5678694,26.5678223 48.5187983,20.6407868 37.2545931,22.4767426 C31.6069289,23.0563921 25.3332095,24.6851592 19.1396922,28.1313189 C14.3742511,31.2690908 3.35603887,37.5703835 9.0587672,49.896318 C41.1443949,70.4361489 66.3110952,37.3554102 60.6323078,33.6817021 C61.8610758,38.9183081 59.5429957,43.5471204 57.350007,46.6483648 C49.5237186,54.0556622 40.5913595,56.800015 31.2909087,57.9419484 C26.5799332,58.2922531 21.7917482,58.3575235 16.638464,56.622168 C11.8831978,55.8437131 4.22689001,48.7346238 6.67065993,40.8728286 C11.7192025,28.5906073 21.3452499,26.0935636 29.8347019,23.3755586 C38.5809203,21.8976919 48.354803,19.4868771 58.0257396,28.0648509" id="Fill-32" fill="#FFFFFF"></path>
                <path d="M17.9971714,31.3895717 C17.870883,31.8338898 12.8349094,33.6111621 9.7225892,41.2927151 C7.22315663,52.61085 21.933658,55.8198804 29.5121578,54.6402219 C48.2734637,54.3474031 61.3380264,37.6255939 58.6482635,35.5117896 C58.7913105,38.1423682 58.0724843,40.654981 56.9604283,42.7639948 C48.4554147,52.2228202 37.100234,55.2665787 25.7827602,55.3198729 C20.3972491,54.9755563 13.3418585,54.2833303 9.60827128,47.1946006 C7.51763,38.9866923 13.7410735,34.2746452 17.9971714,31.3895717" id="Fill-34" fill="#FFFFFF"></path>
                <path d="M55.1193712,33.2219946 C55.4730983,32.5680925 50.5837629,26.5674031 39.9893051,27.5758016 C31.4040894,28.2392846 13.6686522,32.1106005 12.628419,45.1551087 C19.6155779,56.1744367 37.0086599,50.8234578 44.47763,47.2808893 C53.5386716,43.0772331 55.9375523,36.3753356 55.3438173,36.4483905 C55.3737435,39.2657983 53.7846646,42.2820115 51.7927796,44.6167773 C45.0887221,49.9917087 36.6956323,52.410308 28.4210501,52.8971417 C21.5308519,53.957038 7.40750175,49.787514 12.6308131,39.9885637 C17.1736036,32.7968384 25.5595111,29.6464915 33.3576689,27.9416754 C40.8200552,26.6356676 51.1338057,26.3356631 55.1193712,33.2219946" id="Fill-36" fill="#FFFFFF"></path>
                <path d="M21.375595,35.8523336 C21.2475111,35.9858686 17.000391,38.3397963 15.1234225,42.5733931 C12.9322293,46.3285396 20.8548799,49.9860798 28.7326413,49.0818746 C45.8803288,48.4297689 55.4979969,34.9145949 53.0159215,35.5331672 C53.2667027,36.5954586 53.0159215,38.2062614 52.2641764,39.715865 C45.9443708,46.6866289 35.105117,49.9860798 25.5598702,49.753741 C20.8273478,49.7058361 15.654911,47.7471239 14.7541337,44.9363031 C13.8647283,42.2380587 17.4115764,38.1649434 21.375595,35.8523336" id="Fill-38" fill="#FFFFFF"></path>
                <path d="M49.3138764,35.1166339 C49.9536976,35.2938821 46.1865931,32.4459349 37.2350812,33.6788877 C33.0424267,34.2693157 27.9454038,35.7435895 23.6827221,38.3933301 C18.8119409,41.1921747 17.5508527,45.1736719 18.3379106,43.8706582 C23.0943739,47.8162267 38.8247586,44.9664831 44.4323218,40.6143217 C51.7827843,35.1166339 49.0499277,34.7393827 49.7675569,35.300469 C50.3367524,34.6172252 50.9239036,36.2112612 49.9309538,38.2502141 C45.8951123,42.7975881 38.2208488,45.9024254 31.2336899,46.7383662 C24.3800016,48.4437811 15.7421158,44.5682735 17.3401726,43.8161664 C18.8825667,36.3382092 42.9216494,29.4015776 49.3138764,35.1166339" id="Fill-40" fill="#FFFFFF"></path>
                <path d="M69.903012,71.0163972 C69.8970268,68.5391143 61.2154489,58.6659114 47.6193976,56.3377326 C40.8662612,54.7305227 32.9938865,53.8460782 24.4427866,54.7820205 C20.1573611,55.4233475 15.7456471,56.0383269 11.1501866,58.2856662 C7.17719005,60.0222193 0.0320209872,64.900736 1.46548387,73.5739208 C31.4574777,108.782236 72.1259269,85.3411642 69.8820637,79.356044 C67.7231908,85.9974615 62.8308628,88.9100803 58.9165216,91.2670021 C46.8245589,95.0520892 35.5747182,94.4574694 24.4254295,91.8568314 C18.8687408,90.4801639 13.3551457,88.6004948 7.96724058,84.6872621 C5.31398756,82.8010061 2.47279829,80.0009639 0.655682083,75.6344309 C-1.07404975,70.5798636 1.02317528,64.4174952 4.18038476,61.7641618 C16.3788846,52.2089278 27.6233385,53.6496681 38.725344,54.2365033 C49.4389079,56.504801 61.3991955,56.8622914 69.903012,71.0163972" id="Fill-42" fill="#FFFFFF"></path>
                <path d="M21.5874722,57.8144614 C21.1260109,58.1839281 14.9247128,57.9456011 7.09124213,64.0265312 C2.16180567,67.3056226 3.4384555,77.1914005 8.57438243,80.1597088 C13.0148255,83.8980886 18.359637,85.871771 23.6972662,87.3759853 C45.3626063,94.2928562 67.8132087,83.6148507 66.6203521,80.2022244 C65.1461897,83.1483766 62.8831737,85.2573905 60.5644951,86.887954 C46.3854823,92.4844457 32.3483195,91.1107722 19.0952219,86.6729807 C13.1943824,83.8980886 4.42003342,81.4303866 3.38099728,70.5463901 C6.2778492,60.0025184 15.3592406,59.3108912 21.5874722,57.8144614" id="Fill-44" fill="#FFFFFF"></path>
                <path d="M64.3348317,75.6466467 C65.3918236,74.9939422 61.6869654,66.2279417 48.800164,63.1865784 C38.0494916,60.6458215 16.9276106,56.9679217 7.74686436,69.9321892 C6.92628916,77.7867987 17.3830867,81.5497298 23.8052398,83.5635326 C31.108419,85.5958986 38.2978787,86.0066832 44.3112406,85.5958986 C56.6563785,85.0767291 63.1742954,79.4736505 62.6188659,79.2443058 C60.7909763,82.2263867 57.4027369,84.6054645 53.9420762,86.1557873 C43.6588504,88.7468443 33.0422472,87.700122 23.0941943,85.032417 C18.2018663,83.4389798 13.2754225,81.3730804 9.45983754,77.6987735 C4.69020676,74.2442303 5.75138826,66.6153727 10.9663202,64.388393 C20.0842215,59.2637647 30.9204827,59.4410129 40.8308286,60.9069033 C49.96489,62.5500419 62.764307,66.0938079 64.3348317,75.6466467" id="Fill-46" fill="#FFFFFF"></path>
                <path d="M23.1471636,64.351087 C22.8694489,64.4648612 16.9458655,65.0145701 11.9266506,68.6152232 C6.79251924,71.3523903 15.2454613,78.5273488 24.98044,80.797443 C45.1626397,86.983165 63.5600435,77.4135596 60.7607509,76.8452875 C60.4010385,78.177643 58.9454302,79.8231768 57.2192895,81.0357699 C46.0777816,85.3280502 32.293794,84.3933056 20.9487882,80.2249792 C15.4298065,78.3962091 9.48048659,73.8697935 10.1358694,70.8505863 C10.6476067,67.7319764 17.5318197,65.0067855 23.1471636,64.351087" id="Fill-48" fill="#FFFFFF"></path>
                <path d="M57.1688939,75.4805963 C57.8404368,76.148271 54.5228232,71.2493947 43.0347703,68.9804982 C37.6845721,67.8936554 31.0104407,67.3325691 24.5050929,68.2762959 C17.5179339,68.3673153 12.2934256,74.2925544 14.5199316,70.8368136 C18.5910859,76.7782206 38.7744827,80.371688 47.632625,78.1824334 C52.7380272,77.4620633 56.2848752,75.7009589 57.2706428,74.8326823 C57.7530525,73.9943463 57.1263988,75.2177181 57.4537909,75.0512485 C58.8459557,73.7464384 57.9792942,76.6608536 55.4978173,78.2057871 C47.9779728,81.2034371 37.7228776,81.1016392 28.9347625,79.19682 C20.0999627,78.5758526 10.7755709,69.4996677 13.4779028,71.3583784 C20.7188356,63.9301226 51.2237637,66.967893 57.1688939,75.4805963" id="Fill-50" fill="#FFFFFF"></path>
            </g>
        </g>
    </g>
</svg>