<?xml version="1.0" encoding="UTF-8"?>
<svg width="40px" height="40px" viewBox="0 0 40 40" version="1.1" xmlns="http://www.w3.org/2000/svg" xmlns:xlink="http://www.w3.org/1999/xlink">
    <!-- Generator: Sketch 49.3 (51167) - http://www.bohemiancoding.com/sketch -->
    <title>email(1)</title>
    <desc>Created with Sketch.</desc>
    <defs></defs>
    <g id="Page-1" stroke="none" stroke-width="1" fill="none" fill-rule="evenodd">
        <g id="HotStone--Home" transform="translate(-235.000000, -4889.000000)" fill="#000000" fill-rule="nonzero">
            <g id="email(1)" transform="translate(235.000000, 4889.000000)">
                <path d="M39.7272515,11.9668616 L27.9555556,0.195165692 C27.6953606,-0.0649512671 27.2748538,-0.0649512671 27.0147368,0.195165692 L8.17949318,19.0304094 C7.91929825,19.2905263 7.91929825,19.7111111 8.17949318,19.9712281 L19.9511891,31.742924 C20.0809357,31.8726706 20.251306,31.9378558 20.4215984,31.9378558 C20.5919688,31.9378558 20.7622612,31.8726706 20.8920078,31.742924 L39.7272515,12.9076803 C39.9873684,12.6475634 39.9873684,12.2270565 39.7272515,11.9668616 Z M20.4215984,30.3316959 L9.59079922,19.5008187 L27.4851462,1.60647173 L38.3160234,12.4373489 L20.4215984,30.3316959 Z" id="Shape"></path>
                <path d="M27.7672515,0.0627680312 C27.5137622,-0.0549707602 27.2130214,-0.002417154 27.0147368,0.195165692 L8.18019493,19.0304094 C7.98191033,19.228694 7.92935673,19.5294347 8.04779727,19.782924 C8.1582846,20.0184795 8.39376218,20.1661598 8.64998051,20.1661598 C8.66994152,20.1661598 8.68990253,20.1648343 8.70986355,20.1635088 L25.9754386,18.5939181 C26.2955166,18.5646784 26.5490058,18.3111111 26.5782456,17.9911111 L28.1478363,0.725536062 C28.1731774,0.446705653 28.0207407,0.181910331 27.7672515,0.0627680312 Z M25.302768,17.3190643 L10.4198051,18.6717349 L26.6560624,2.43547758 L25.302768,17.3190643 Z" id="Shape"></path>
                <path d="M39.7265497,11.9668616 L27.9549318,0.195243665 C27.7726316,0.0122417154 27.5005068,-0.0476413255 27.2583236,0.0402339181 C27.0154386,0.128031189 26.8451462,0.348304094 26.8218324,0.605769981 L25.5110331,15.0276023 C25.4923977,15.2364912 25.5735673,15.442807 25.7299025,15.5831579 C25.8530214,15.6936452 26.011384,15.7528265 26.1737232,15.7528265 C26.2176218,15.7528265 26.2622222,15.7488499 26.3047953,15.7388694 L39.3879142,13.0893567 C39.6281481,13.0407797 39.8217544,12.8644834 39.8929435,12.6295517 C39.9641326,12.3946199 39.9002729,12.139883 39.7265497,11.9668616 Z M26.9175828,14.2577778 L28.0187914,2.14074074 L37.9101754,12.031423 L26.9175828,14.2577778 Z" id="Shape"></path>
                <path d="M23.5674854,17.7462768 C23.4277583,17.5899415 23.2221442,17.5093957 23.0119298,17.5274074 L8.59009747,18.8382066 C8.33263158,18.8615205 8.11235867,19.0318129 8.0245614,19.2746979 C7.93676413,19.5168811 7.99727096,19.7890058 8.17957115,19.971306 L19.9512671,31.7430019 C20.0776608,31.8693957 20.2480312,31.9379337 20.4216764,31.9379337 C20.4862378,31.9379337 20.5507212,31.928577 20.6146589,31.9106433 C20.8488889,31.8394542 21.0258869,31.645848 21.074386,31.405614 L23.7238986,18.3224951 C23.76577,18.1161793 23.7078363,17.9026121 23.5674854,17.7462768 Z M20.0157505,29.9251462 L10.1250682,20.0344639 L22.2421053,18.9326316 L20.0157505,29.9251462 Z" id="Shape"></path>
                <path d="M10.4510721,34.1288889 C10.1908772,33.8687719 9.77037037,33.8687719 9.51025341,34.1288889 L4.85270955,38.7864327 C4.59259259,39.0466277 4.59259259,39.4671345 4.85270955,39.7272515 C4.98245614,39.8569981 5.15282651,39.9221832 5.32311891,39.9221832 C5.49341131,39.9221832 5.66378168,39.8569981 5.79352827,39.7272515 L10.4510721,35.0697076 C10.7112671,34.8095906 10.7112671,34.3890838 10.4510721,34.1288889 Z" id="Shape"></path>
                <path d="M11.1164912,28.8060039 C10.8562963,28.5458869 10.4357895,28.5458869 10.1756725,28.8060039 L0.195165692,38.7865107 C-0.0649512671,39.0467057 -0.0649512671,39.4672125 0.195165692,39.7273294 C0.324912281,39.857076 0.495282651,39.9222612 0.665575049,39.9222612 C0.835945419,39.9222612 1.00623782,39.857076 1.13598441,39.7273294 L11.1164912,29.7468226 C11.3766082,29.4866277 11.3766082,29.0661209 11.1164912,28.8060039 Z" id="Shape"></path>
                <path d="M2.46666667,32.7982066 C2.20647173,32.5380897 1.78596491,32.5380897 1.52584795,32.7982066 L0.195087719,34.1288889 C-0.0650292398,34.3890838 -0.0650292398,34.8095906 0.195087719,35.0697076 C0.324834308,35.1994542 0.495204678,35.2646394 0.665497076,35.2646394 C0.835867446,35.2646394 1.00615984,35.1994542 1.13590643,35.0697076 L2.46666667,33.7389474 C2.7268616,33.4788304 2.7268616,33.0583236 2.46666667,32.7982066 Z" id="Shape"></path>
                <path d="M6.4588694,28.8060039 C6.19867446,28.5458869 5.77816764,28.5458869 5.51805068,28.8060039 L3.52194932,30.8021053 C3.26175439,31.0623002 3.26175439,31.482807 3.52194932,31.742924 C3.65169591,31.8726706 3.82206628,31.9378558 3.99235867,31.9378558 C4.16272904,31.9378558 4.33302144,31.8726706 4.46276803,31.742924 L6.4588694,29.7468226 C6.71906433,29.4866277 6.71906433,29.0661209 6.4588694,28.8060039 Z" id="Shape"></path>
                <path d="M11.1164912,24.1483821 C10.8562963,23.8882651 10.4357895,23.8882651 10.1756725,24.1483821 L7.51423002,26.8098246 C7.25403509,27.0700195 7.25403509,27.4905263 7.51423002,27.7506433 C7.64397661,27.8803899 7.81434698,27.945575 7.98463938,27.945575 C8.15500975,27.945575 8.32530214,27.8803899 8.45504873,27.7506433 L11.1164912,25.0892008 C11.3766082,24.8290838 11.3766082,24.408577 11.1164912,24.1483821 Z" id="Shape"></path>
                <path d="M14.4432749,25.4791423 C14.1830799,25.2189474 13.7625731,25.2189474 13.5024561,25.4791423 L12.1716959,26.8099025 C11.911501,27.0700975 11.911501,27.4906043 12.1716959,27.7507212 C12.3014425,27.8804678 12.4718129,27.945653 12.6421053,27.945653 C12.8124756,27.945653 12.982768,27.8804678 13.1125146,27.7507212 L14.4432749,26.419961 C14.7034698,26.1598441 14.7034698,25.7393372 14.4432749,25.4791423 Z" id="Shape"></path>
                <path d="M14.4432749,30.1367641 C14.1830799,29.8765692 13.7625731,29.8765692 13.5024561,30.1367641 L11.5063548,32.1328655 C11.2461598,32.3930604 11.2461598,32.8135673 11.5063548,33.0736842 C11.6361014,33.2034308 11.8064717,33.268616 11.9767641,33.268616 C12.1471345,33.268616 12.3174269,33.2034308 12.4471735,33.0736842 L14.4432749,31.0775828 C14.7034698,30.8173879 14.7034698,30.3968811 14.4432749,30.1367641 Z" id="Shape"></path>
            </g>
        </g>
    </g>
</svg>