<?xml version="1.0" encoding="UTF-8"?>
<svg width="14px" height="14px" viewBox="0 0 14 14" version="1.1" xmlns="http://www.w3.org/2000/svg" xmlns:xlink="http://www.w3.org/1999/xlink">
    <!-- Generator: Sketch 49.3 (51167) - http://www.bohemiancoding.com/sketch -->
    <title>phone</title>
    <desc>Created with Sketch.</desc>
    <defs></defs>
    <g id="Page-1" stroke="none" stroke-width="1" fill="none" fill-rule="evenodd">
        <g id="HotStone--Home" transform="translate(-901.000000, -26.000000)" fill="#413F40" fill-rule="nonzero">
            <g id="phone" transform="translate(901.000000, 26.000000)">
                <path d="M13.8497717,10.6191606 C14.1142371,11.1190711 14.0234001,11.7235838 13.6234578,12.1235641 L12.9650194,12.7820651 C12.1516391,13.5952631 11.2546886,14.0006942 10.2941524,14.0006942 C8.98609968,14.0006942 7.55969939,13.2492711 6.06426299,11.7536926 L2.2478117,7.93687871 C1.06952616,6.75874077 0.346463711,5.6174602 0.0983489588,4.54496275 C-0.199077303,3.25806963 0.178025977,2.0773361 1.2197965,1.03572616 L1.87849445,0.37722518 C2.27843674,-0.0230146734 2.88315157,-0.113600736 3.38275502,0.150889803 C4.367428,0.671824554 5.43619008,2.48198846 5.48108951,2.5588179 C5.67158765,2.89287023 5.731021,3.23574756 5.65030584,3.52723223 C5.58957483,3.74629995 5.45098353,3.92487649 5.24906588,4.04505227 C4.93243408,4.31006193 4.56233823,4.63866352 4.50420255,4.71886722 C4.0886882,5.33220495 4.13748064,5.8209544 4.6682282,6.35175239 L7.64923871,9.33330569 C8.17972674,9.86384412 8.66842975,9.9126412 9.28274734,9.49656825 C9.36242436,9.43920573 9.6907352,9.06907471 9.95546014,8.75241283 C10.0756245,8.55047599 10.2541841,8.41187153 10.473231,8.35113474 C10.764688,8.27067148 11.1077923,8.32985091 11.4392175,8.5188098 C11.5188945,8.56553041 13.3286269,9.63387492 13.8497717,10.6191606 Z" id="Shape"></path>
            </g>
        </g>
    </g>
</svg>