<?xml version="1.0" encoding="UTF-8"?>
<svg width="60px" height="60px" viewBox="0 0 60 60" version="1.1" xmlns="http://www.w3.org/2000/svg" xmlns:xlink="http://www.w3.org/1999/xlink">
    <!-- Generator: Sketch 49.3 (51167) - http://www.bohemiancoding.com/sketch -->
    <title>lotion</title>
    <desc>Created with Sketch.</desc>
    <defs>
        <linearGradient x1="50%" y1="50%" x2="0%" y2="50%" id="linearGradient-1">
            <stop stop-color="#C85D99" offset="0%"></stop>
            <stop stop-color="#B56A94" offset="100%"></stop>
        </linearGradient>
    </defs>
    <g id="Page-1" stroke="none" stroke-width="1" fill="none" fill-rule="evenodd">
        <g id="-About-us-" transform="translate(-1008.000000, -3141.000000)" fill="url(#linearGradient-1)" fill-rule="nonzero">
            <g id="lotion" transform="translate(1008.000000, 3141.000000)">
                <path d="M58.0489655,36.1520449 L55.4782759,35.1955092 C55.0831034,35.0492382 54.8275862,34.6979952 54.8275862,34.302486 L54.8275862,32.7185245 L58.9655172,32.7185245 L58.9655172,26.9446672 L47.8468966,26.9446672 L48.2855172,20.9591018 L52.6810345,18.9141941 L53.7837931,10.7047314 L51.7313793,10.4660786 L50.7651724,17.6535686 L48.447931,18.7313553 L48.6165517,16.4256616 L46.5527586,16.2938252 L46.0282759,23.4534082 L43.5062069,21.693344 L44.4755172,13.5781877 L42.42,13.3655172 L41.3203448,22.5719326 L45.8617241,25.740818 L45.7737931,26.9446672 L36.2068966,26.9446672 L36.2068966,32.7185245 L40.3448276,32.7185245 L40.3448276,34.302486 C40.3448276,34.6979952 40.0893103,35.0492382 39.6941379,35.1964715 L37.1234483,36.1530072 C35.937931,36.593745 35.1724138,37.6455493 35.1724138,38.8330393 L35.1724138,56.776263 C35.1724138,58.367923 36.5648276,59.6631917 38.2758621,59.6631917 L56.8965517,59.6631917 C58.6075862,59.6631917 60,58.367923 60,56.776263 L60,38.8330393 C60,37.6455493 59.2344828,36.593745 58.0489655,36.1520449 Z M47.7051724,28.8692863 L56.8965517,28.8692863 L56.8965517,30.7939054 L47.5644828,30.7939054 L47.7051724,28.8692863 Z M43.5165517,57.7385726 L38.2758621,57.7385726 C37.7058621,57.7385726 37.2413793,57.3074579 37.2413793,56.776263 L37.2413793,44.266239 L44.5044828,44.266239 L43.5165517,57.7385726 Z M44.6451724,42.3416199 L37.2413793,42.3416199 L37.2413793,38.8330393 C37.2413793,38.4375301 37.4968966,38.0862871 37.892069,37.940016 L40.4627586,36.9834804 C41.6482759,36.5417803 42.4137931,35.4899759 42.4137931,34.302486 L42.4137931,32.7185245 L45.3506897,32.7185245 L44.6451724,42.3416199 Z M38.2758621,30.7939054 L38.2758621,28.8692863 L45.632069,28.8692863 L45.4913793,30.7939054 L38.2758621,30.7939054 Z M57.9310345,42.3416199 L55.862069,42.3416199 L55.862069,44.266239 L57.9310345,44.266239 L57.9310345,56.776263 C57.9310345,57.3074579 57.4665517,57.7385726 56.8965517,57.7385726 L45.5896552,57.7385726 L46.5775862,44.266239 L53.7931034,44.266239 L53.7931034,42.3416199 L46.7182759,42.3416199 L47.4237931,32.7185245 L52.7586207,32.7185245 L52.7586207,34.302486 C52.7586207,35.4899759 53.5241379,36.5417803 54.7096552,36.9834804 L57.2803448,37.940016 C57.6755172,38.0862871 57.9310345,38.4375301 57.9310345,38.8330393 L57.9310345,42.3416199 Z" id="Shape"></path>
                <path d="M28.7141379,20.710826 L25.862069,19.5743384 L25.862069,13.4723336 L23.7931034,13.4723336 L23.7931034,6.7361668 C23.7931034,3.02261427 20.5448276,0 16.5517241,0 C12.5586207,0 9.31034483,3.02261427 9.31034483,6.7361668 L9.31034483,13.4723336 L7.24137931,13.4723336 L7.24137931,19.5743384 L4.38931034,20.7117883 C1.72344828,21.7732157 0,24.2040096 0,26.9023256 L0,56.776263 C0,58.367923 1.39241379,59.6631917 3.10344828,59.6631917 L30,59.6631917 C31.7110345,59.6631917 33.1034483,58.367923 33.1034483,56.776263 L33.1034483,26.9023256 C33.1034483,24.2040096 31.38,21.7732157 28.7141379,20.710826 Z M11.3793103,6.7361668 C11.3793103,4.08307939 13.6996552,1.92461909 16.5517241,1.92461909 C19.4037931,1.92461909 21.7241379,4.08307939 21.7241379,6.7361668 L21.7241379,7.69847634 L19.0158621,7.69847634 L17.9813793,9.62309543 L15.122069,9.62309543 L14.0875862,7.69847634 L11.3793103,7.69847634 L11.3793103,6.7361668 Z M23.7931034,15.3969527 L23.7931034,19.2461909 L21.7241379,19.2461909 L21.7241379,15.3969527 L23.7931034,15.3969527 Z M11.3793103,9.62309543 L12.8089655,9.62309543 L13.8434483,11.5477145 L19.26,11.5477145 L20.2944828,9.62309543 L21.7241379,9.62309543 L21.7241379,13.4723336 L11.3793103,13.4723336 L11.3793103,9.62309543 Z M19.6551724,15.3969527 L19.6551724,19.2461909 L17.5862069,19.2461909 L17.5862069,15.3969527 L19.6551724,15.3969527 Z M15.5172414,15.3969527 L15.5172414,19.2461909 L13.4482759,19.2461909 L13.4482759,15.3969527 L15.5172414,15.3969527 Z M9.31034483,15.3969527 L11.3793103,15.3969527 L11.3793103,19.2461909 L9.31034483,19.2461909 L9.31034483,15.3969527 Z M31.0344828,56.776263 C31.0344828,57.3074579 30.57,57.7385726 30,57.7385726 L3.10344828,57.7385726 C2.53344828,57.7385726 2.06896552,57.3074579 2.06896552,56.776263 L2.06896552,51.0024058 L31.0344828,51.0024058 L31.0344828,56.776263 Z M31.0344828,29.8315958 L25.862069,29.8315958 L25.862069,31.7562149 L31.0344828,31.7562149 L31.0344828,49.0777867 L2.06896552,49.0777867 L2.06896552,31.7562149 L23.7931034,31.7562149 L23.7931034,29.8315958 L2.06896552,29.8315958 L2.06896552,26.9023256 C2.06896552,24.9748196 3.29896552,23.2388132 5.20448276,22.4795509 L8.48793103,21.1708099 L24.6155172,21.1708099 L27.8989655,22.4795509 C29.8044828,23.2388132 31.0344828,24.9748196 31.0344828,26.9023256 L31.0344828,29.8315958 Z" id="Shape"></path>
                <path d="M23.7931034,34.6431435 C20.6793103,34.6431435 17.9637931,36.2530874 16.5517241,38.6232558 C15.1396552,36.2530874 12.4241379,34.6431435 9.31034483,34.6431435 L5.17241379,34.6431435 L5.17241379,38.4923817 C5.17241379,42.7371291 8.88517241,46.1908581 13.4482759,46.1908581 L15.5172414,46.1908581 L17.5862069,46.1908581 L19.6551724,46.1908581 C24.2182759,46.1908581 27.9310345,42.7371291 27.9310345,38.4923817 L27.9310345,34.6431435 L23.7931034,34.6431435 Z M15.5172414,42.9055333 L11.0762069,38.7743384 L9.61344828,40.1350441 L14.0544828,44.266239 L13.4482759,44.266239 C10.0251724,44.266239 7.24137931,41.676664 7.24137931,38.4923817 L7.24137931,36.5677626 L9.31034483,36.5677626 C12.7334483,36.5677626 15.5172414,39.1573376 15.5172414,42.3416199 L15.5172414,42.9055333 Z M25.862069,38.4923817 C25.862069,41.676664 23.0782759,44.266239 19.6551724,44.266239 L19.0489655,44.266239 L23.49,40.1350441 L22.0272414,38.7743384 L17.5862069,42.9055333 L17.5862069,42.3416199 C17.5862069,39.1573376 20.37,36.5677626 23.7931034,36.5677626 L25.862069,36.5677626 L25.862069,38.4923817 Z" id="Shape"></path>
                <rect id="Rectangle-path" x="53.7931034" y="46.1908581" width="2.06896552" height="1.92461909"></rect>
                <rect id="Rectangle-path" x="48.6206897" y="53.8893344" width="2.06896552" height="1.92461909"></rect>
                <rect id="Rectangle-path" x="39.3103448" y="47.1531676" width="2.06896552" height="1.92461909"></rect>
                <rect id="Rectangle-path" x="15.5172414" y="3.84923817" width="2.06896552" height="1.92461909"></rect>
            </g>
        </g>
    </g>
</svg>