<?xml version="1.0" encoding="UTF-8"?>
<svg width="60px" height="60px" viewBox="0 0 60 60" version="1.1" xmlns="http://www.w3.org/2000/svg" xmlns:xlink="http://www.w3.org/1999/xlink">
    <!-- Generator: Sketch 49.3 (51167) - http://www.bohemiancoding.com/sketch -->
    <title>flyer</title>
    <desc>Created with Sketch.</desc>
    <defs>
        <linearGradient x1="50%" y1="50%" x2="0%" y2="50%" id="linearGradient-1">
            <stop stop-color="#C85D99" offset="0%"></stop>
            <stop stop-color="#B56A94" offset="100%"></stop>
        </linearGradient>
    </defs>
    <g id="Page-1" stroke="none" stroke-width="1" fill="none" fill-rule="evenodd">
        <g id="-About-us-" transform="translate(-619.000000, -3138.000000)" fill="url(#linearGradient-1)" fill-rule="nonzero">
            <g id="flyer" transform="translate(619.000000, 3138.000000)">
                <path d="M58.5107602,0.490175439 C57.6865497,-0.0559064327 56.6426901,-0.150292398 55.7339181,0.239181287 L29.9415205,11.271462 L4.14912281,0.239298246 C3.24035088,-0.15005848 2.19660819,-0.0557894737 1.3722807,0.490292398 C0.50994152,1.06292398 -0.00596491228,2.03146199 8.42519956e-16,3.06678363 L8.42519956e-16,56.8162573 C-0.00596491228,57.851462 0.50994152,58.820117 1.3722807,59.3927485 C2.19649123,59.9390643 3.24035088,60.0333333 4.14912281,59.6437427 L29.9415205,48.6115789 L55.7339181,59.6437427 C56.6426901,60.0333333 57.6865497,59.9389474 58.5107602,59.3927485 C59.3732164,58.820117 59.8891228,57.851462 59.8830409,56.8162573 L59.8830409,3.06678363 C59.8891228,2.03146199 59.3732164,1.06292398 58.5107602,0.490175439 Z M3.36362573,57.8084211 C3.07204678,57.9364912 2.73520468,57.905614 2.47181287,57.7265497 C2.16807018,57.5243275 1.98865497,57.1810526 1.99614035,56.8161404 L1.99614035,3.06678363 C1.98865497,2.7019883 2.16807018,2.35859649 2.47181287,2.15649123 C2.62573099,2.05368421 2.80619883,1.99777778 2.99134503,1.99567251 C3.11953216,1.99625731 3.24619883,2.02315789 3.36362573,2.07461988 L28.9435088,13.0155556 L28.9435088,46.6555556 C28.9498246,46.7218713 28.9630409,46.7872515 28.982924,46.8507602 L3.36362573,57.8084211 Z M57.8870175,56.8162573 C57.8945029,57.1810526 57.7150877,57.5244444 57.411345,57.7265497 C57.1476023,57.9044444 56.8112281,57.9353216 56.5195322,57.8084211 L30.9002339,46.8506433 C30.920117,46.7871345 30.9333333,46.7216374 30.9395322,46.6554386 L30.9395322,13.0154386 L56.5194152,2.07450292 C56.8108772,1.94584795 57.1480702,1.97672515 57.4112281,2.15637427 C57.7149708,2.35859649 57.894386,2.70187135 57.8869006,3.06678363 L57.8869006,56.8162573 L57.8870175,56.8162573 Z" id="Shape"></path>
                <path d="M25.7368421,14.7923977 L6.7748538,6.6651462 C6.15812865,6.40081871 5.44982456,6.46409357 4.88959064,6.83345029 C4.32935673,7.20280702 3.9922807,7.82888889 3.99216374,8.5 L3.99216374,27.1374269 C3.98818713,28.1681871 4.77274854,29.0309942 5.79918129,29.1247953 L24.7621053,30.9308772 C24.8254971,30.9367251 24.8878363,30.9396491 24.9501754,30.9396491 C25.4797661,30.939883 25.9877193,30.7297076 26.3622222,30.3553216 C26.7367251,29.9809357 26.9472515,29.4730994 26.9472515,28.9435088 L26.9472515,16.6266667 C26.9481871,15.8278363 26.4716959,15.105848 25.7368421,14.7923977 Z M24.951345,28.9435088 L5.98830409,27.1374269 L5.98830409,20.374269 L8.87426901,17.4883041 L14.1725146,24.5521637 C14.5032749,24.9929825 15.1288889,25.0822222 15.5697076,24.751462 C16.0105263,24.4207018 16.0997661,23.7950877 15.7690058,23.354269 L14.3625731,21.4789474 L17.8148538,20.0980117 L24.951345,25.4498246 L24.951345,28.9435088 Z M24.951345,22.9556725 L18.5633918,18.1646784 C18.2849123,17.9560234 17.9178947,17.9072515 17.5946199,18.0360234 L13.1221053,19.8250292 L9.78070175,15.3698246 C9.60736842,15.1383626 9.34210526,14.9936842 9.05356725,14.9730994 C8.7651462,14.954269 8.48233918,15.0597661 8.27684211,15.2630409 L5.98830409,17.5516959 L5.98830409,8.49953216 L24.9512281,16.6266667 L24.951345,22.9556725 Z" id="Shape"></path>
                <path d="M25.9493567,32.9356725 L4.9902924,32.9356725 C4.43906433,32.9356725 3.9922807,33.3824561 3.9922807,33.9336842 C3.9922807,34.4849123 4.43906433,34.9316959 4.9902924,34.9316959 L25.9493567,34.9316959 C26.5005848,34.9316959 26.9473684,34.4849123 26.9473684,33.9336842 C26.9473684,33.3824561 26.5005848,32.9356725 25.9493567,32.9356725 Z" id="Shape"></path>
                <path d="M25.8548538,36.9322807 L4.89578947,38.9284211 C4.36573099,38.9791813 3.96888889,39.4369591 3.99380117,39.9688889 C4.01883041,40.5007018 4.45684211,40.9194152 4.98923977,40.9202339 C5.02046784,40.9202339 5.05263158,40.9187135 5.08479532,40.9159064 L26.0438596,38.9197661 C26.591462,38.8661988 26.9925146,38.3795322 26.9403509,37.8318129 C26.8881871,37.2840936 26.4026901,36.8815205 25.8548538,36.9322807 Z" id="Shape"></path>
                <path d="M54.8928655,32.9356725 L33.9338012,32.9356725 C33.3825731,32.9356725 32.9357895,33.3824561 32.9357895,33.9336842 C32.9357895,34.4849123 33.3825731,34.9316959 33.9338012,34.9316959 L54.8928655,34.9316959 C55.4440936,34.9316959 55.8908772,34.4849123 55.8908772,33.9336842 C55.8908772,33.3824561 55.4440936,32.9356725 54.8928655,32.9356725 Z" id="Shape"></path>
                <path d="M33.9327485,30.9395322 C33.9639766,30.9395322 33.9961404,30.9381287 34.0283041,30.9352047 L54.9873684,28.9390643 C55.5349708,28.8854971 55.9360234,28.3988304 55.8838596,27.8511111 C55.8316959,27.3033918 55.3461988,26.9010526 54.7982456,26.9516959 L33.8391813,28.9478363 C33.3091228,28.9985965 32.9122807,29.4563743 32.937193,29.9883041 C32.9622222,30.520117 33.4003509,30.9387135 33.9327485,30.9395322 Z" id="Shape"></path>
                <path d="M54.705731,20.9766082 L33.7466667,24.9687719 C33.2411696,25.0652632 32.8919298,25.5302924 32.940117,26.0426901 C32.9883041,26.5550877 33.4182456,26.9467836 33.9328655,26.9473684 C33.9960234,26.9472515 34.0589474,26.9414035 34.1209357,26.9298246 L55.08,22.9376608 C55.6215205,22.834269 55.9767251,22.3115789 55.8733333,21.7700585 C55.7699415,21.2284211 55.2472515,20.8732164 54.705731,20.9766082 Z" id="Shape"></path>
                <path d="M54.9873684,38.9283041 L34.0283041,36.9321637 C33.4803509,36.8815205 32.9948538,37.2837427 32.9426901,37.8315789 C32.8905263,38.3794152 33.2915789,38.8659649 33.8391813,38.9195322 L54.7982456,40.9156725 C54.8304094,40.9185965 54.8625731,40.92 54.8938012,40.92 C55.4261988,40.9191813 55.8643275,40.5005848 55.8893567,39.968655 C55.914269,39.4368421 55.5174269,38.9790643 54.9873684,38.9283041 Z" id="Shape"></path>
            </g>
        </g>
    </g>
</svg>