<?xml version="1.0" encoding="UTF-8"?>
<svg width="60px" height="55px" viewBox="0 0 60 55" version="1.1" xmlns="http://www.w3.org/2000/svg" xmlns:xlink="http://www.w3.org/1999/xlink">
    <!-- Generator: Sketch 49.3 (51167) - http://www.bohemiancoding.com/sketch -->
    <title>appointment</title>
    <desc>Created with Sketch.</desc>
    <defs>
        <linearGradient x1="50%" y1="50%" x2="0%" y2="50%" id="linearGradient-1">
            <stop stop-color="#C85D99" offset="0%"></stop>
            <stop stop-color="#B56A94" offset="100%"></stop>
        </linearGradient>
    </defs>
    <g id="Page-1" stroke="none" stroke-width="1" fill="none" fill-rule="evenodd">
        <g id="-About-us-" transform="translate(-430.000000, -3106.000000)" fill="url(#linearGradient-1)" fill-rule="nonzero">
            <g id="appointment" transform="translate(430.000000, 3106.000000)">
                <path d="M34.3069939,3.95104294 L18.4174233,3.95104294 C17.877546,3.95104294 17.4358282,4.39276074 17.4358282,4.93263804 C17.4358282,5.47251534 17.877546,5.91423313 18.4174233,5.91423313 L34.3069939,5.91423313 C34.8468712,5.91423313 35.288589,5.47251534 35.288589,4.93263804 C35.288589,4.39276074 34.8468712,3.95104294 34.3069939,3.95104294 Z" id="Shape"></path>
                <path d="M39.1413497,0.0860122699 C38.6014724,0.0860122699 38.1597546,0.527730061 38.1597546,1.06760736 L38.1597546,8.71177914 C38.1597546,9.25165644 38.6014724,9.69337423 39.1413497,9.69337423 C39.681227,9.69337423 40.1229448,9.25165644 40.1229448,8.71177914 L40.1229448,1.06760736 C40.1229448,0.527730061 39.681227,0.0860122699 39.1413497,0.0860122699 Z" id="Shape"></path>
                <path d="M13.7425767,0.0860122699 C13.2026994,0.0860122699 12.7609816,0.527730061 12.7609816,1.06760736 L12.7609816,8.71177914 C12.7609816,9.25165644 13.2026994,9.69337423 13.7425767,9.69337423 C14.282454,9.69337423 14.7241718,9.25165644 14.7241718,8.71177914 L14.7241718,1.06760736 C14.7241718,0.527730061 14.282454,0.0860122699 13.7425767,0.0860122699 Z" id="Shape"></path>
                <path d="M45.5585276,15.9755828 L7.31312883,15.9755828 C6.77325153,15.9755828 6.33153374,16.4173006 6.33153374,16.9571779 C6.33153374,17.4970552 6.77325153,17.938773 7.31312883,17.938773 L45.5462577,17.938773 C46.0984049,17.938773 46.5401227,17.4970552 46.5401227,16.9571779 C46.5401227,16.4173006 46.0984049,15.9755828 45.5585276,15.9755828 Z" id="Shape"></path>
                <path d="M36.6260123,23.7056442 L7.31312883,23.7056442 C6.77325153,23.7056442 6.33153374,24.147362 6.33153374,24.6872393 C6.33153374,25.2271166 6.77325153,25.6688344 7.31312883,25.6688344 L36.6260123,25.6688344 C37.1781595,25.6688344 37.6076074,25.2271166 37.6076074,24.6872393 C37.6076074,24.147362 37.1658896,23.7056442 36.6260123,23.7056442 Z" id="Shape"></path>
                <path d="M23.877546,31.3130061 L7.31312883,31.3130061 C6.77325153,31.3130061 6.33153374,31.7547239 6.33153374,32.2946012 C6.33153374,32.8344785 6.77325153,33.2761963 7.31312883,33.2761963 L23.877546,33.2761963 C24.4174233,33.2761963 24.8591411,32.8344785 24.8591411,32.2946012 C24.8591411,31.7547239 24.4174233,31.3130061 23.877546,31.3130061 Z" id="Shape"></path>
                <path d="M58.4419632,35.8160736 C57.1904294,33.4357055 55.2640491,31.4970552 52.883681,30.2577914 L52.883681,4.88355828 C52.8959509,4.3804908 52.478773,3.95104294 51.9757055,3.95104294 C51.9634356,3.95104294 51.9388957,3.95104294 51.9266258,3.95104294 L43.0063804,3.95104294 C42.4665031,3.95104294 42.0247853,4.39276074 42.0247853,4.93263804 C42.0247853,5.47251534 42.4665031,5.91423313 43.0063804,5.91423313 L50.9204908,5.91423313 L50.9204908,29.4234356 C49.5953374,28.9817178 48.2088344,28.748589 46.8100613,28.7608589 C39.5953374,28.7608589 33.7303067,34.6013497 33.7303067,41.8283436 C33.7303067,43.2148466 33.9511656,44.6013497 34.4051534,45.9142331 L1.96343558,45.9142331 L1.96343558,5.91423313 L8.58920245,5.91423313 C9.12907975,5.91423313 9.57079755,5.47251534 9.57079755,4.93263804 C9.57079755,4.39276074 9.12907975,3.95104294 8.58920245,3.95104294 L0.945030675,3.95104294 C0.44196319,3.93877301 0.0247852761,4.3191411 0.000245398773,4.82220859 C0.000245398773,4.84674847 0.000245398773,4.8590184 0.000245398773,4.88355828 L0.000245398773,46.944908 C-0.0120245399,47.4479755 0.380613497,47.8651534 0.883680982,47.8774233 C0.908220859,47.8774233 0.920490798,47.8774233 0.945030675,47.8774233 L35.2395092,47.8774233 C38.5646626,54.2823313 46.4665031,56.7731288 52.871411,53.4479755 C59.276319,50.1228221 61.7671166,42.2209816 58.4419632,35.8160736 Z M46.8223313,52.9817178 C40.675092,52.9817178 35.6934969,48.0001227 35.6934969,41.8528834 C35.6934969,35.7056442 40.675092,30.7240491 46.8223313,30.7240491 C52.9695706,30.7240491 57.9511656,35.7056442 57.9511656,41.8528834 C57.9511656,47.9878528 52.9695706,52.9694479 46.8223313,52.9817178 Z" id="Shape"></path>
                <path d="M52.7241718,41.4970552 L47.8530061,41.4970552 L47.8530061,34.8344785 C47.8530061,34.2946012 47.4112883,33.8528834 46.871411,33.8528834 C46.3315337,33.8528834 45.889816,34.2946012 45.889816,34.8344785 L45.889816,42.4786503 C45.8652761,42.9939877 46.270184,43.4357055 46.7977914,43.4479755 C46.8100613,43.4479755 46.8223313,43.4479755 46.8346012,43.4479755 L52.7241718,43.4479755 C53.2640491,43.4479755 53.7057669,43.0062577 53.7057669,42.4663804 C53.7057669,41.9265031 53.2640491,41.4970552 52.7241718,41.4970552 Z" id="Shape"></path>
            </g>
        </g>
    </g>
</svg>