<?xml version="1.0" encoding="UTF-8"?>
<svg width="60px" height="66px" viewBox="0 0 60 66" version="1.1" xmlns="http://www.w3.org/2000/svg" xmlns:xlink="http://www.w3.org/1999/xlink">
    <!-- Generator: Sketch 49.3 (51167) - http://www.bohemiancoding.com/sketch -->
    <title>bathrobe</title>
    <desc>Created with Sketch.</desc>
    <defs>
        <linearGradient x1="50%" y1="50%" x2="0%" y2="50%" id="linearGradient-1">
            <stop stop-color="#C85D99" offset="0%"></stop>
            <stop stop-color="#B56A94" offset="100%"></stop>
        </linearGradient>
    </defs>
    <g id="Page-1" stroke="none" stroke-width="1" fill="none" fill-rule="evenodd">
        <g id="-About-us-" transform="translate(-823.000000, -3105.000000)" fill="url(#linearGradient-1)" fill-rule="nonzero">
            <g id="bathrobe" transform="translate(823.000000, 3105.000000)">
                <path d="M59.8850215,38.2351931 L54.1717597,16.2609013 C54.0619313,15.8214592 53.9519742,15.3818884 53.8421459,14.9424464 C53.4027039,13.0745923 52.963133,11.0969099 51.8644635,9.33901288 C48.5984549,3.8604721 42.2003433,0.303733906 35.4799571,0.020472103 C35.2001717,0.000772532189 34.9248927,0 34.6145923,0 L25.4952361,0 C25.1658798,0 24.8754077,0.000515021459 24.5539056,0.0242060086 C17.8612017,0.331030043 11.4942489,3.88120172 8.13553648,9.33914163 C7.03686695,11.0970386 6.59729614,13.074721 6.15785408,14.9425751 C6.04802575,15.3820172 5.93806867,15.821588 5.82824034,16.26103 L0.114978541,38.2351931 C-0.324463519,39.9930901 0.664377682,41.8609442 2.42227468,42.3003863 L6.70725322,43.3990558 C8.46515021,43.8384979 10.3330043,42.8496567 10.7724464,41.0917597 L15.3870386,24.2814592 C15.496867,24.0616738 15.7166524,24.1716309 15.7166524,24.2814592 L15.7166524,32.9613734 C14.5081545,32.9613734 13.5193133,33.9502146 13.5193133,35.1588412 L13.5193133,37.356309 C13.5193133,38.5649356 14.5081545,39.5537768 15.7167811,39.5537768 L15.7167811,62.6267382 C15.7167811,64.4945923 17.1450644,65.9228755 19.0129185,65.9228755 L40.9872103,65.9228755 C42.8550644,65.9228755 44.2833476,64.4945923 44.2833476,62.6267382 L44.2833476,39.5536481 C45.4919742,39.5536481 46.4808155,38.5648069 46.4808155,37.3561803 L46.4808155,35.1587124 C46.4808155,33.9500858 45.4919742,32.9612446 44.2833476,32.9612446 L44.2833476,24.2814592 C44.2833476,24.1716309 44.6129614,24.1716309 44.6129614,24.2814592 L49.2275536,41.0917597 C49.6669957,42.5200429 50.9854506,43.5088841 52.4138627,43.5088841 C52.7434764,43.5088841 52.9632618,43.3990558 53.2928755,43.3990558 L57.5778541,42.3003863 C59.3356223,41.7511159 60.3244635,39.9930901 59.8850215,38.2351931 Z M34.5047639,2.19746781 C34.5413305,2.19746781 34.5776395,2.19901288 34.614206,2.19927039 L30,18.8978112 L25.4952361,2.19746781 L34.5047639,2.19746781 Z M33.2961373,35.1588412 L33.2961373,38.4549785 L33.2961373,41.7511159 L31.0986695,41.7511159 L31.0986695,35.1588412 L33.2961373,35.1588412 Z M28.9013305,42.8497854 L28.9013305,46.1459227 L26.7038627,46.1459227 L26.7038627,38.4549785 L26.7038627,35.1588412 L27.5828755,35.1588412 L27.8026609,35.1588412 L28.9013305,35.1588412 L28.9013305,42.8497854 Z M15.606824,21.7545064 C14.5081545,21.7545064 13.6291416,22.5235622 13.2995279,23.5124034 L8.68493562,40.3227039 C8.5751073,40.872103 7.91587983,41.2017167 7.36648069,41.0917597 L3.08150215,39.9930901 C2.532103,39.8832618 2.20248927,39.2240343 2.31244635,38.6746352 L8.02570815,16.7003433 C8.13553648,16.2609013 8.24549356,15.8213305 8.35532189,15.3818884 C8.79476395,13.6239914 9.12437768,11.9759227 10.0033906,10.4376824 C12.7216738,6.06901288 17.7562661,2.98892704 23.2118884,2.33060086 L28.8382403,23.1687554 L26.8796137,32.9613734 L25.6050644,32.9613734 L17.9141202,32.9613734 L17.9141202,24.0618026 C17.9141202,22.853176 16.925279,21.7545064 15.606824,21.7545064 Z M15.7167811,35.1588412 L16.8154506,35.1588412 L24.5063948,35.1588412 L24.5063948,37.356309 L16.8154506,37.356309 L15.7167811,37.356309 L15.7167811,35.1588412 Z M42.0858798,62.6266094 C42.0858798,63.2858369 41.6464378,63.725279 40.9872103,63.725279 L19.0129185,63.725279 C18.353691,63.725279 17.9142489,63.2858369 17.9142489,62.6266094 L17.9142489,39.5536481 L24.5065236,39.5536481 L24.5065236,46.1459227 C24.5065236,47.3545494 25.4953648,48.3433906 26.7039914,48.3433906 L28.9014592,48.3433906 C30.1100858,48.3433906 31.098927,47.3545494 31.098927,46.1459227 L31.098927,43.9484549 L33.2961373,43.9484549 C34.5047639,43.9484549 35.4936052,42.9596137 35.4936052,41.7509871 L35.4936052,39.5536481 L42.0858798,39.5536481 L42.0858798,62.6266094 Z M44.2832189,37.3561803 L43.1845494,37.3561803 L35.4936052,37.3561803 L35.4936052,35.1587124 L43.1845494,35.1587124 L44.2832189,35.1587124 L44.2832189,37.3561803 Z M56.9184979,40.2128755 L52.6335193,41.3115451 C52.0841202,41.4213734 51.4248927,41.0917597 51.3150644,40.5424893 L46.7004721,23.7321888 C46.3708584,22.6335193 45.4918455,21.9742918 44.393176,21.9742918 C43.1845494,21.9742918 42.0858798,23.0729614 42.0858798,24.281588 L42.0858798,32.9613734 L34.3949356,32.9613734 L30,32.9613734 L29.1650215,32.9613734 L31.0987983,23.2927468 L36.7846352,2.33922747 C42.2860944,3.01854077 47.2770386,6.11472103 49.8867811,10.6575966 C50.765794,12.0858798 51.2052361,13.8439056 51.6446781,15.6018026 C51.7545064,16.0412446 51.8644635,16.4808155 51.9742918,16.9202575 L57.6875536,38.8944206 C57.797382,39.4438197 57.4677682,40.1030472 56.9184979,40.2128755 Z" id="Shape"></path>
            </g>
        </g>
    </g>
</svg>