<?xml version="1.0" encoding="UTF-8"?>
<svg width="30px" height="19px" viewBox="0 0 30 19" version="1.1" xmlns="http://www.w3.org/2000/svg" xmlns:xlink="http://www.w3.org/1999/xlink">
    <!-- Generator: Sketch 49.3 (51167) - http://www.bohemiancoding.com/sketch -->
    <title>email</title>
    <desc>Created with Sketch.</desc>
    <defs></defs>
    <g id="Page-1" stroke="none" stroke-width="1" fill="none" fill-rule="evenodd">
        <g id="HotStone--Home" transform="translate(-137.000000, -5053.000000)" fill-rule="nonzero">
            <g id="email" transform="translate(137.000000, 5053.000000)">
                <path d="M7.85712891,0.744960937 L17.6357227,9.21638672 C18.1728516,9.68208984 18.9700195,9.68208984 19.5071484,9.21638672 L29.2857422,0.744960937" id="Shape" fill="#F0E0D2"></path>
                <path d="M27.857168,0.030703125 L0,0.030703125 L0,1.41532725 L7.27142578,1.41532725 C7.18857422,1.63755087 7.14498047,1.87158705 7.14287109,2.10761091 L7.14287109,3.49223503 L2.14283203,3.49223503 L2.14283203,4.87685916 L7.1428125,4.87685916 L7.1428125,6.95376694 L4.28572266,6.95376694 L4.28572266,8.33839106 L7.14287109,8.33839106 L7.14287109,15.9537953 C7.14287109,17.1009758 8.10216797,18.0307031 9.28570312,18.0307031 L27.8571094,18.0307031 C29.0407031,18.0307031 29.9999414,17.100919 29.9999414,15.9537953 L29.9999414,2.10755412 C30,0.960487224 29.0407031,0.030703125 27.857168,0.030703125 Z M27.4714453,1.41532725 L19.0357031,8.42846177 C18.7685742,8.6500039 18.3742969,8.6500039 18.1071094,8.42846177 L9.67136719,1.41532725 L27.4714453,1.41532725 Z M27.857168,16.6461358 L9.28570312,16.6461358 C8.89142578,16.6461358 8.57144531,16.3359995 8.57144531,15.9538521 L8.57144531,2.32915304 L17.1428906,9.47381578 C17.9450391,10.1384422 19.1264648,10.1384422 19.9286133,9.47381578 L28.5714844,2.32915304 L28.5714844,15.9538521 C28.5714258,16.3359995 28.2514453,16.6461358 27.857168,16.6461358 Z" id="Shape" fill="#B56A94"></path>
            </g>
        </g>
    </g>
</svg>