<?xml version="1.0" encoding="UTF-8"?>
<svg width="60px" height="60px" viewBox="0 0 60 60" version="1.1" xmlns="http://www.w3.org/2000/svg" xmlns:xlink="http://www.w3.org/1999/xlink">
    <!-- Generator: Sketch 49.3 (51167) - http://www.bohemiancoding.com/sketch -->
    <title>clock</title>
    <desc>Created with Sketch.</desc>
    <defs>
        <linearGradient x1="50%" y1="50%" x2="0%" y2="50%" id="linearGradient-1">
            <stop stop-color="#C85D99" offset="0%"></stop>
            <stop stop-color="#B56A94" offset="100%"></stop>
        </linearGradient>
    </defs>
    <g id="Page-1" stroke="none" stroke-width="1" fill="none" fill-rule="evenodd">
        <g id="-About-us-" transform="translate(-535.000000, -3105.000000)" fill="url(#linearGradient-1)" fill-rule="nonzero">
            <g id="clock" transform="translate(535.000000, 3105.000000)">
                <path d="M29.8690909,59.74 C13.4,59.74 0,46.3436364 0,29.8763636 C0,13.4018182 13.4,0 29.8690909,0 C46.3418182,0 59.7418182,13.4018182 59.7418182,29.8763636 C59.74,46.3436364 46.34,59.74 29.8690909,59.74 Z M29.8690909,1.81818182 C14.4018182,1.81818182 1.81818182,14.4054545 1.81818182,29.8763636 C1.81818182,45.3418182 14.4018182,57.9236364 29.8690909,57.9236364 C45.3381818,57.9236364 57.9236364,45.3418182 57.9236364,29.8763636 C57.9218182,14.4054545 45.3381818,1.81818182 29.8690909,1.81818182 Z" id="Shape"></path>
                <path d="M29.8690909,30.7854545 L18.3,30.7854545 C17.7981818,30.7854545 17.3909091,30.3781818 17.3909091,29.8763636 C17.3909091,29.3745455 17.7981818,28.9672727 18.3,28.9672727 L28.96,28.9672727 L28.96,12.4436364 C28.96,11.9418182 29.3672727,11.5345455 29.8690909,11.5345455 C30.3709091,11.5345455 30.7781818,11.9418182 30.7781818,12.4436364 L30.7781818,29.8763636 C30.7781818,30.3781818 30.3709091,30.7854545 29.8690909,30.7854545 Z" id="Shape"></path>
            </g>
        </g>
    </g>
</svg>